<svg width="19" height="17" viewBox="0 0 19 17" fill="none" xmlns="http://www.w3.org/2000/svg">
<path d="M13.6472 0.491657H18.0125L16.1204 15.9714H11.7551L12.0083 13.975C11.2187 15.0179 10.3248 15.5542 10.0417 15.733C9.11798 16.2694 8.22406 16.478 7.15135 16.478C5.28902 16.478 3.54589 15.9714 2.07092 14.5113C0.566149 13.0066 0 11.1144 0 9.0435C0 6.25745 0.92372 3.96305 2.39869 2.42849C3.65018 1.1472 5.64659 0 8.50714 0C9.60964 0 10.5781 0.208582 11.5763 0.744934C12.4404 1.20679 12.9767 1.78784 13.3939 2.50298L13.6472 0.506556V0.491657ZM6.06375 4.96126C5.06554 5.88498 4.52919 7.25566 4.52919 8.53695C4.52919 9.89273 5.03574 10.9654 5.70618 11.6061C6.34682 12.2169 7.28546 12.6043 8.56675 12.6043C9.43087 12.6043 10.6079 12.4255 11.6359 11.5018C12.6788 10.5781 13.1704 9.1031 13.1704 7.77712C13.1704 6.67461 12.7384 5.7062 12.0977 5.02086C11.5912 4.48451 10.6674 3.84386 9.08819 3.84386C7.98568 3.84386 6.94278 4.17163 6.04886 4.94637L6.06375 4.96126Z" fill="#B71B26"/>
</svg>
