<svg width="22" height="24" viewBox="0 0 22 24" fill="none" xmlns="http://www.w3.org/2000/svg">
<path d="M9.14779 0C10.9654 0 15.301 0.178784 18.2658 3.03933C19.9493 4.64839 21.2306 7.30036 21.2306 10.8313C21.2306 16.4184 18.8319 19.1597 17.7294 20.2324C15.0477 22.8844 11.4422 23.8379 6.43623 23.8379H0L2.93504 0H9.16269H9.14779ZM5.14005 19.8451H6.71931C9.86293 19.8451 12.4702 19.2342 14.258 17.2676C15.7628 15.6287 16.4333 13.1555 16.4333 10.9356C16.4333 9.60965 16.1502 7.46424 14.3623 5.85519C12.4255 4.14184 9.74374 3.99285 8.49225 3.99285H7.06198L5.12515 19.8302L5.14005 19.8451Z" fill="#B71B26"/>
</svg>
