<svg width="17" height="17" viewBox="0 0 17 17" fill="none" xmlns="http://www.w3.org/2000/svg">
<path d="M15.5542 11.8445C14.7646 13.4535 13.5131 14.7348 12.2616 15.4499C10.7271 16.3141 9.01371 16.4928 7.61323 16.4928C5.54231 16.4928 3.50119 16.1055 1.86234 14.3474C0.998212 13.4535 0 11.8743 0 9.34148C0 6.65971 0.968414 3.97795 2.68176 2.2944C4.64839 0.327771 6.97258 0 8.86472 0C10.7569 0 12.649 0.357568 14.1538 1.78784C15.8373 3.3969 16.1502 5.51252 16.1502 7.40465C16.1502 8.04529 16.1502 8.50715 16.0757 8.98391H4.48451C4.30572 10.4142 4.73778 11.4571 5.37842 12.0977C6.16806 12.9172 7.13647 13.0661 7.9112 13.0661C8.44756 13.0661 9.44577 13.0364 10.2652 12.5596C10.9058 12.1722 11.4422 11.5167 11.77 10.9505L15.5244 11.8445H15.5542ZM12.3361 6.19785C12.3063 5.30393 11.9041 4.43981 11.3677 3.94815C10.7569 3.382 9.83313 3.08403 8.93921 3.08403C7.76222 3.08403 6.89809 3.54589 6.28725 4.08224C5.75089 4.5888 5.24434 5.33373 5.00596 6.19785H12.3361Z" fill="#B71B26"/>
</svg>
