<svg width="19" height="25" viewBox="0 0 19 25" fill="none" xmlns="http://www.w3.org/2000/svg">
<path d="M14.1389 0.506555H18.5042L16.6865 15.2712C16.478 17.0888 16.18 20.0685 14.3325 21.9607C13.1853 23.1377 11.0846 24.2104 7.68772 24.2104C5.82539 24.2104 3.54589 23.8826 1.89213 22.1395C0.893922 21.0965 0.178784 19.4875 0 17.8188H4.5739C4.64839 18.4595 4.96127 19.2491 5.46782 19.711C5.85519 20.0983 6.61502 20.5006 7.82181 20.5006C9.17759 20.5006 10.1758 20.0685 10.8313 19.4577C11.7998 18.534 12.0828 17.1335 12.2318 16.0906L12.5149 13.9154C12.3361 14.1687 11.6508 15.0924 10.5781 15.733C9.68415 16.2694 8.71573 16.478 7.68772 16.478C5.79559 16.478 4.03754 16.0161 2.60727 14.5858C1.46007 13.4386 0.566152 11.621 0.566152 9.0435C0.566152 6.10846 1.71335 3.67998 3.35221 2.14541C4.42491 1.1025 6.21275 0 8.86472 0C10.2652 0 11.3379 0.283075 12.1126 0.744934C12.649 1.07271 13.3641 1.60906 13.9005 2.50298L14.1538 0.506555H14.1389ZM6.55543 4.97616C5.51252 5.89988 5.05065 7.37485 5.05065 8.70084C5.05065 10.1311 5.6913 11.0548 6.19785 11.5614C7.01728 12.3808 8.01549 12.6341 8.90942 12.6341C10.6675 12.6341 11.6955 11.9934 12.2318 11.4869C13.1555 10.593 13.7366 9.1329 13.7366 7.73242C13.7366 6.33194 13.0959 5.37843 12.5596 4.87187C11.919 4.30572 10.9207 3.87366 9.66925 3.87366C8.13469 3.87366 7.13647 4.43981 6.55543 4.97616Z" fill="#B71B26"/>
</svg>
