<svg width="8" height="25" viewBox="0 0 8 25" fill="none" xmlns="http://www.w3.org/2000/svg">
<path d="M6.25744 9.1478L4.36532 24.6275H0L1.89213 9.1478H6.25744ZM3.11383 0.893921C3.82896 0.148987 4.61859 0 5.18474 0C5.87008 0 6.43623 0.253278 6.8236 0.640644C7.25566 1.07271 7.50893 1.68355 7.50893 2.3242C7.50893 2.86055 7.33015 3.65018 6.64481 4.32062C6.00417 4.96126 5.24434 5.21454 4.5739 5.21454C3.90346 5.21454 3.3522 4.96126 2.93504 4.5739C2.50298 4.14184 2.2497 3.65018 2.2497 2.93504C2.2497 2.2199 2.50298 1.50477 3.11383 0.893921Z" fill="#B71B26"/>
</svg>
