<svg width="17" height="16" viewBox="0 0 17 16" fill="none" xmlns="http://www.w3.org/2000/svg">
<path d="M1.90704 0.506555H6.27235L6.01907 2.50298C6.45113 1.81764 7.06198 1.22169 7.91121 0.715137C8.80513 0.208582 9.69905 0 10.9207 0C12.9917 0 14.2878 0.640644 15.0626 1.43027C16.0608 2.47318 16.2843 3.75447 16.2843 4.82718C16.2843 5.6913 16.1353 6.40644 16.0012 7.47914L14.9583 15.9863H10.593L11.4869 8.80513C11.5167 8.47735 11.6955 6.91299 11.6955 6.33194C11.6955 5.25924 11.3081 4.64839 10.9803 4.36532C10.6526 4.03754 10.0566 3.72467 9.0882 3.72467C7.83671 3.72467 7.09178 4.23123 6.65972 4.64839C5.84029 5.51252 5.48272 6.97259 5.33373 8.07509L4.36532 15.9714H0L1.89213 0.491657L1.90704 0.506555Z" fill="#B71B26"/>
</svg>
