<svg width="18" height="17" viewBox="0 0 18 17" fill="none" xmlns="http://www.w3.org/2000/svg">
<path d="M15.8969 2.20501C16.8951 3.24791 17.8933 4.91657 17.8933 7.35995C17.8933 9.32658 17.2825 11.7998 15.1371 13.8707C13.0959 15.8075 10.7717 16.4779 8.01549 16.4779C5.79559 16.4779 3.72468 16.0161 2.04112 14.3325C0.893926 13.23 0 11.5018 0 9.0733C0 6.64481 1.10251 4.14184 2.68177 2.60727C3.93326 1.38558 6.15316 0 9.75865 0C12.798 0 14.6901 1.04291 15.8671 2.2199L15.8969 2.20501ZM11.8594 11.2485C12.7533 10.3546 13.3194 8.99881 13.3194 7.77712C13.3194 6.8087 12.9321 5.6317 12.1722 4.91657C11.4571 4.23123 10.3844 3.84386 9.34147 3.84386C8.11978 3.84386 6.91299 4.30572 6.04886 5.09535C4.97616 6.09356 4.5143 7.56853 4.5143 8.77533C4.5143 9.69905 4.90167 10.8164 5.58701 11.4869C6.30215 12.202 7.44934 12.5894 8.44755 12.5894C9.62455 12.5894 10.9207 12.1573 11.8445 11.2336L11.8594 11.2485Z" fill="#B71B26"/>
</svg>
