<svg width="18" height="24" viewBox="0 0 18 24" fill="none" xmlns="http://www.w3.org/2000/svg">
<path d="M9.81823 0C11.6359 0 14.0048 0.253278 15.7479 2.07092C16.5673 2.93504 17.4315 4.36532 17.4315 6.64482C17.4315 8.92432 16.612 10.6824 15.4648 11.7998C14.3921 12.8427 12.6341 13.6174 11.0697 13.8707L17.1484 23.8528H11.5763L6.39153 14.2729H5.82537L4.64838 23.8528H0L2.93504 0H9.83312H9.81823ZM6.21275 10.9803H7.85159C9.10308 10.9803 10.6823 10.6228 11.5763 9.72884C12.0083 9.29678 12.6192 8.44756 12.6192 7.01728C12.6192 6.33194 12.4702 5.40822 11.6508 4.69309C11.0846 4.18653 10.1162 3.79917 8.58164 3.79917H7.12157L6.22764 10.9952L6.21275 10.9803Z" fill="#B71B26"/>
</svg>
