<svg width="13" height="17" viewBox="0 0 13 17" fill="none" xmlns="http://www.w3.org/2000/svg">
<path d="M10.6675 4.23123C10.3397 3.90346 10.0268 3.66508 9.56496 3.4416C9.1031 3.23302 8.70083 3.12872 8.10488 3.12872C7.92609 3.12872 7.06198 3.15852 6.64481 3.63528C6.49583 3.81407 6.31704 4.09714 6.31704 4.559C6.31704 4.88677 6.39154 5.12515 6.64481 5.34863C6.89809 5.55721 7.21096 5.7062 7.8963 5.91478L9.22228 6.34684C10.0864 6.62992 11.0399 7.16627 11.621 7.74732C12.5149 8.67104 12.6937 9.86293 12.6937 10.6824C12.6937 12.4702 11.9785 13.7515 11.0846 14.6454C9.47556 16.2545 7.43444 16.4631 6.00417 16.4631C4.42491 16.4631 3.24791 16.1353 2.35398 15.7181C1.56435 15.3308 0.640644 14.5709 0 13.9005L2.60727 11.2485C2.96484 11.7551 3.47139 12.2169 4.03754 12.5447C4.5739 12.8278 5.21454 13.0513 5.82538 13.0513C6.39153 13.0513 7.10668 12.9023 7.50894 12.5894C7.86651 12.3063 8.11978 11.7998 8.11978 11.2336C8.11978 10.9505 8.04528 10.593 7.73241 10.2652C7.40464 9.98212 6.86829 9.75864 6.19785 9.52026L5.12514 9.0882C4.4845 8.83492 3.72467 8.47736 3.08403 7.83671C2.36889 7.12157 2.04111 6.37664 2.04111 5.18474C2.04111 3.65018 2.68177 2.35399 3.57569 1.50477C4.46961 0.640644 5.89988 0 7.9708 0C8.96901 0 10.1162 0.148987 11.0101 0.506556C11.6955 0.759833 12.4404 1.22169 12.947 1.57926L10.6973 4.26102L10.6675 4.23123Z" fill="#B71B26"/>
</svg>
