<svg width="17" height="17" viewBox="0 0 17 17" fill="none" xmlns="http://www.w3.org/2000/svg">
<path d="M5.55722 0L4.63349 7.73242C4.48451 8.98391 4.45471 9.37127 4.45471 9.59476C4.45471 10.593 4.78248 11.174 5.09535 11.4869C5.55721 11.9934 6.37664 12.2765 7.27056 12.2765C8.37306 12.2765 9.16269 11.8892 9.66925 11.4124C10.4887 10.6228 10.6675 9.55006 10.8462 8.16448L11.8445 0.014899H16.2098L15.1669 8.56675C14.8093 11.4273 14.124 13.6472 11.7998 14.9732C10.3993 15.7628 8.65614 16.0161 7.18117 16.0161C5.24434 16.0161 3.32241 15.584 2.07092 14.6901C1.25149 14.0793 0 12.798 0 10.4291C0 9.81824 0.0744925 9.1031 0.208581 8.0006L1.177 0.0297973H5.54231L5.55722 0Z" fill="#B71B26"/>
</svg>
